<?xml version="1.0" encoding="utf-8"?>
<!-- Generator: Adobe Illustrator 22.1.0, SVG Export Plug-In . SVG Version: 6.00 Build 0)  -->
<svg version="1.1" id="Layer_1" xmlns="http://www.w3.org/2000/svg" xmlns:xlink="http://www.w3.org/1999/xlink" x="0px" y="0px"
	 viewBox="0 0 86.5 34.4" style="enable-background:new 0 0 86.5 34.4;" xml:space="preserve">
<title>fhp</title>
<path d="M58.5,25.4c0,3.7-0.8,6.5-4.2,9.1l-3.6-3.1c1.6-1.3,2.6-3.3,2.5-5.4h-2.9v-8.2h8.2V25.4"/>
<polyline points="0,26 0,0 19.6,0 19.6,6.2 7.8,6.2 7.8,10.8 18.7,10.8 18.7,17 7.8,17 7.8,26 0,26 "/>
<polyline points="37.8,26 37.8,15.9 30.2,15.9 30.2,26 22.2,26 22.2,0 30.2,0 30.2,9.1 37.8,9.1 37.8,0 45.9,0 45.9,26 37.8,26 "/>
<path d="M74.1,11.8c1.2,0.1,2.3-0.1,3.3-0.7c0.6-0.5,0.9-1.3,0.8-2.1c0-0.8-0.2-1.5-0.8-2.1c-0.6-0.6-1.6-0.7-3.2-0.7H71v5.6
	L74.1,11.8z M63,26V0h11.1c5.1,0,7.3,0.6,8.9,1.6c2.3,1.5,3.4,4,3.4,7.2c0.1,2.8-1.1,5.5-3.3,7.2c-1.8,1.2-4.2,1.9-8.2,1.9h-4V26H63
	z"/>
<polygon points="50.4,12.3 58.5,12.3 58.5,4.1 50.4,4.1 "/>
</svg>
