<?xml version="1.0" encoding="utf-8"?>
<!-- Generator: Adobe Illustrator 22.1.0, SVG Export Plug-In . SVG Version: 6.00 Build 0)  -->
<svg version="1.1" id="Layer_1" xmlns="http://www.w3.org/2000/svg" xmlns:xlink="http://www.w3.org/1999/xlink" x="0px" y="0px"
	 viewBox="0 0 80.1 72.9" style="enable-background:new 0 0 80.1 72.9;" xml:space="preserve">
<path d="M22,61.9l-11,11l-11-11H22z"/>
<path d="M38.1,36.9c-2.3-2.7-2.2-4.2-0.8-5.6c1.7-1.7,3.5-1,5.5,0.9C42.8,32.2,38.1,36.9,38.1,36.9z M61.7,6.9
	c1.7-1.7,3.5-1,5.5,0.9l-4.7,4.7C60.1,9.8,60.2,8.4,61.7,6.9z M75.9,11.7c-2.1,3.2-5.9,8.4-9.8,4.5L76,6.3c-0.9-0.9-1.5-1.7-2.1-2.2
	c-5.3-5.3-11.3-5.4-16-0.7c-3.1,3.1-4,6.7-3.1,10.1L51.7,10c-0.8,0.4-4.6,3.8-1.8,8.8l-3.5-2.9l-4.7,4.7l6.4,6.4
	c-4.9-3.9-10.2-3.5-14.4,0.7c-4.5,4.5-4.2,10-0.8,14.5l-0.7-0.7c-4.5-4.5-9.4-2.9-11.8-0.5c-1.9,1.9-3,4.4-2.5,6.2l-9.7-9.7L3,42.7
	l19.2,19.2h10.3L25.6,55c-3.6-3.7-3.7-5.6-1.9-7.4c1.7-1.7,3.7-0.6,7.2,2.8l6.8,6.8l5.1-5.1l-6.5-6.5c4.7,3.5,10.3,3.7,15.3-1.3
	l0.1-0.1l0,0c3.1-2.8,4-5.6,4-5.6L51.8,36c-2.1,3.2-5.8,8.4-9.7,4.5l9.9-9.9l6.2,6.2l5.4-5.4l-7.7-7.7c-3.6-3.6-1.5-7,0-8.3
	c0.7,1.5,1.7,2.9,3,4.2c5,5,11.4,6,17.1,0.4l0.1-0.1l0,0c3.1-2.8,4-5.6,4-5.6S75.9,11.7,75.9,11.7z"/>
</svg>
