<svg xmlns="http://www.w3.org/2000/svg" viewBox="0 0 727.21 288.51"><title>Zeichenfläche 6 Kopie</title><polygon points="514.86 151.64 405.16 288.5 727.21 151.64 514.86 151.64"/><polygon points="314.59 151.64 398.12 278.44 499.76 151.64 314.59 151.64"/><polygon points="523.92 140.57 714.12 140.57 603.42 41.94 523.92 140.57"/><path d="M3.64,27.68V.49H9.23V27.92c0,7.53,4.85,11.66,11.89,11.66S33,35.69,33,27.92V.49h5.59V27.68c0,10.68-7.29,17.24-17.49,17.24S3.64,38.61,3.64,27.68"/><path d="M74.54,20.15c5.83,0,8.75-2.67,8.75-7.28s-2.92-7.29-8.75-7.29h-7V20.15Zm-2.18,5.1H67.5V44.43H61.92V.49H75c8.5,0,14.08,4.85,14.08,12.38,0,6.31-3.88,10.68-10.44,11.9L94,44.43h-6.8Z"/><path d="M129.18,39.34c5.82,0,8.74-3.16,8.74-7.53s-2.92-7.53-8.74-7.53H118.74V39.34Zm-1.46-19.91c4.61,0,7.53-2.92,7.53-6.8,0-3.65-2.67-6.8-7.53-6.8h-9V19.67h9ZM113.15.49h14.57c8.5,0,12.87,5.34,12.87,11.41,0,4.37-1.7,7.28-4.61,9.22,4.37,1.7,7.52,5.1,7.52,10.93,0,8-6.07,12.38-15.29,12.38h-15.3V.49Z"/><path d="M171.18,27.68h18.7V5.83h-8.26ZM178.47.49h17V44.43h-5.58V33H168.76l-5.59,11.41H157.1Z"/><polygon points="219.26 0 219.26 44.44 224.84 44.44 224.84 12.38 250.58 35.69 250.58 44.44 256.17 44.44 256.17 0.49 250.58 0.49 250.58 28.41 219.26 0"/><path d="M0,84.5A22.24,22.24,0,0,1,22.58,61.92,21.14,21.14,0,0,1,36.91,67l-3.4,4.37a16.84,16.84,0,0,0-10.93-4.13c-9.71,0-16.75,7.53-16.75,17s7,17,16.75,17a16.89,16.89,0,0,0,10.93-4.12l3.4,4.37a21.14,21.14,0,0,1-14.33,5.1A21.7,21.7,0,0,1,0,84.5"/><path d="M92.75,84.5c0-9.71-7-17-16.75-17S59.25,75,59.25,84.5s7,17,16.75,17S92.75,94,92.75,84.5m-39.09,0a22.59,22.59,0,1,1,22.58,22.58A22.24,22.24,0,0,1,53.66,84.5"/><polygon points="119.22 61.92 140.59 85.47 162.2 61.92 162.2 106.35 156.37 106.35 156.37 75.76 140.59 93.48 124.81 75.76 124.81 106.35 119.22 106.35 119.22 61.92"/><path d="M198.14,84c6.31,0,9.71-2.91,9.71-8.25,0-5.1-3.4-8.26-9.71-8.26h-6.56V84ZM185.75,62.4h12.39c9.22,0,15.29,5.1,15.29,13.36s-6.07,13.35-15.29,13.35h-6.8v17h-5.59V62.4Z"/><polygon points="232.86 62.4 238.69 62.4 238.69 101.01 257.14 101.01 257.14 106.35 232.86 106.35 232.86 62.4"/><polygon points="276.08 62.4 301.57 62.4 301.57 67.99 281.91 67.99 281.91 81.1 297.93 81.1 297.93 86.68 281.91 86.68 281.91 101.01 301.57 101.01 301.57 106.35 276.08 106.35 276.08 62.4"/><polygon points="336.05 85.71 324.88 106.35 318.81 106.35 332.65 80.61 319.54 62.4 326.1 62.4 340.43 82.31 350.87 62.4 356.94 62.4 343.82 87.17 357.66 106.35 350.87 106.35 336.05 85.71"/><rect x="377.33" y="62.4" width="5.58" height="43.95"/><polygon points="414.97 67.99 402.34 67.99 402.34 62.4 432.94 62.4 432.94 67.99 420.55 67.99 420.55 106.35 414.97 106.35 414.97 67.99"/><polygon points="479.31 62.4 466.93 82.31 454.55 62.4 447.99 62.4 464.02 87.66 464.02 106.35 469.6 106.35 469.6 87.66 485.87 62.4 479.31 62.4"/><polygon points="3.64 124.32 3.64 168.27 27.68 168.27 27.68 162.93 9.23 162.93 9.23 124.32 3.64 124.32"/><path d="M66.29,129.91h8.25v21.85H55.85Zm-3.16-5.59L42,168.27h6.07l5.58-11.41H74.79v11.41h5.58v-44Z"/><path d="M120,163.17c5.83,0,8.74-3.16,8.74-7.53s-2.91-7.52-8.74-7.52H109.51v15Zm-1.46-19.91c4.62,0,7.53-2.91,7.53-6.8,0-3.64-2.67-6.8-7.53-6.8h-9V143.5h9Zm-14.57-18.94h14.57c8.5,0,12.87,5.34,12.87,11.41,0,4.37-1.7,7.29-4.61,9.23,4.37,1.7,7.53,5.1,7.53,10.93,0,8-6.07,12.38-15.3,12.38h-15.3v-44Z"/></svg>